<mxfile host="app.diagrams.net" modified="2021-12-06T01:43:10.626Z" agent="5.0 (Windows)" etag="PN5CW3u40_xI4uF9NAGo" version="15.8.8" type="github">
  <diagram id="8WjpjRhoSgxoVWKSzdAx" name="Page-1">
    <mxGraphModel dx="782" dy="716" grid="1" gridSize="10" guides="1" tooltips="1" connect="1" arrows="1" fold="1" page="1" pageScale="1" pageWidth="850" pageHeight="1100" math="0" shadow="0">
      <root>
        <mxCell id="0" />
        <mxCell id="1" parent="0" />
        <mxCell id="rObYeSCpx5tgW8fG9xQo-66" value="" style="rounded=0;whiteSpace=wrap;html=1;shadow=0;sketch=0;fillStyle=auto;fontFamily=Comic Sans MS;" parent="1" vertex="1">
          <mxGeometry x="20" y="30" width="660" height="370" as="geometry" />
        </mxCell>
        <mxCell id="rObYeSCpx5tgW8fG9xQo-18" value="" style="rounded=0;whiteSpace=wrap;html=1;sketch=1;fillColor=none;strokeColor=#666666;fontColor=#333333;fontFamily=Comic Sans MS;" parent="1" vertex="1">
          <mxGeometry x="320" y="60" width="170" height="320" as="geometry" />
        </mxCell>
        <mxCell id="rObYeSCpx5tgW8fG9xQo-51" value="" style="rounded=0;whiteSpace=wrap;html=1;sketch=1;fillColor=none;strokeColor=#6c8ebf;fontFamily=Comic Sans MS;" parent="1" vertex="1">
          <mxGeometry x="330" y="130" width="100" height="190" as="geometry" />
        </mxCell>
        <mxCell id="rObYeSCpx5tgW8fG9xQo-19" value="" style="rounded=0;whiteSpace=wrap;html=1;sketch=1;fillColor=none;strokeColor=#82b366;fontFamily=Comic Sans MS;" parent="1" vertex="1">
          <mxGeometry x="40" y="60" width="100" height="180" as="geometry" />
        </mxCell>
        <mxCell id="rObYeSCpx5tgW8fG9xQo-17" value="" style="rounded=0;whiteSpace=wrap;html=1;sketch=1;fillColor=none;strokeColor=#d6b656;fontFamily=Comic Sans MS;" parent="1" vertex="1">
          <mxGeometry x="150" y="60" width="160" height="320" as="geometry" />
        </mxCell>
        <mxCell id="rObYeSCpx5tgW8fG9xQo-14" style="edgeStyle=none;rounded=0;sketch=1;orthogonalLoop=1;jettySize=auto;html=1;exitX=1;exitY=0.5;exitDx=0;exitDy=0;entryX=0;entryY=0.5;entryDx=0;entryDy=0;endArrow=none;endFill=0;fillColor=#fff2cc;strokeColor=#d6b656;fontFamily=Comic Sans MS;" parent="1" source="rObYeSCpx5tgW8fG9xQo-1" target="rObYeSCpx5tgW8fG9xQo-12" edge="1">
          <mxGeometry relative="1" as="geometry" />
        </mxCell>
        <mxCell id="rObYeSCpx5tgW8fG9xQo-1" value="&lt;blockquote&gt;&lt;br&gt;&lt;/blockquote&gt;" style="rounded=0;whiteSpace=wrap;html=1;fillColor=#fff2cc;strokeColor=#d6b656;sketch=1;align=center;fontFamily=Comic Sans MS;dashed=1;" parent="1" vertex="1">
          <mxGeometry x="160" y="80" width="140" height="90" as="geometry" />
        </mxCell>
        <mxCell id="rObYeSCpx5tgW8fG9xQo-16" style="edgeStyle=none;rounded=0;sketch=1;orthogonalLoop=1;jettySize=auto;html=1;exitX=1;exitY=0.5;exitDx=0;exitDy=0;entryX=0;entryY=0.5;entryDx=0;entryDy=0;endArrow=none;endFill=0;fillColor=#fff2cc;strokeColor=#d6b656;fontFamily=Comic Sans MS;" parent="1" source="rObYeSCpx5tgW8fG9xQo-2" target="rObYeSCpx5tgW8fG9xQo-13" edge="1">
          <mxGeometry relative="1" as="geometry" />
        </mxCell>
        <mxCell id="rObYeSCpx5tgW8fG9xQo-2" value="&lt;div&gt;&lt;br&gt;&lt;/div&gt;&lt;div&gt;&lt;br&gt;&lt;/div&gt;" style="rounded=0;whiteSpace=wrap;html=1;fillColor=#fff2cc;strokeColor=#d6b656;sketch=1;fontFamily=Comic Sans MS;dashed=1;" parent="1" vertex="1">
          <mxGeometry x="160" y="180" width="140" height="90" as="geometry" />
        </mxCell>
        <mxCell id="rObYeSCpx5tgW8fG9xQo-15" style="edgeStyle=none;rounded=0;sketch=1;orthogonalLoop=1;jettySize=auto;html=1;exitX=1;exitY=0.5;exitDx=0;exitDy=0;endArrow=none;endFill=0;fillColor=#fff2cc;strokeColor=#d6b656;entryX=0;entryY=0.5;entryDx=0;entryDy=0;fontFamily=Comic Sans MS;" parent="1" source="rObYeSCpx5tgW8fG9xQo-3" target="rObYeSCpx5tgW8fG9xQo-12" edge="1">
          <mxGeometry relative="1" as="geometry">
            <mxPoint x="280" y="200" as="targetPoint" />
          </mxGeometry>
        </mxCell>
        <mxCell id="rObYeSCpx5tgW8fG9xQo-3" value="" style="rounded=0;whiteSpace=wrap;html=1;fillColor=#fff2cc;strokeColor=#d6b656;sketch=1;fontFamily=Comic Sans MS;dashed=1;" parent="1" vertex="1">
          <mxGeometry x="160" y="280" width="140" height="90" as="geometry" />
        </mxCell>
        <mxCell id="rObYeSCpx5tgW8fG9xQo-7" style="rounded=0;orthogonalLoop=1;jettySize=auto;html=1;exitX=1;exitY=0.5;exitDx=0;exitDy=0;entryX=0;entryY=0.5;entryDx=0;entryDy=0;endArrow=none;endFill=0;sketch=1;fillColor=#d5e8d4;strokeColor=#82b366;fontFamily=Comic Sans MS;" parent="1" source="rObYeSCpx5tgW8fG9xQo-4" target="rObYeSCpx5tgW8fG9xQo-1" edge="1">
          <mxGeometry relative="1" as="geometry">
            <mxPoint x="170" y="150" as="targetPoint" />
          </mxGeometry>
        </mxCell>
        <mxCell id="rObYeSCpx5tgW8fG9xQo-4" value="&lt;div&gt;MGT&lt;/div&gt;" style="rounded=0;whiteSpace=wrap;html=1;fillColor=#d5e8d4;strokeColor=#82b366;sketch=1;fontFamily=Comic Sans MS;" parent="1" vertex="1">
          <mxGeometry x="50" y="80" width="80" height="30" as="geometry" />
        </mxCell>
        <mxCell id="rObYeSCpx5tgW8fG9xQo-8" style="edgeStyle=none;rounded=0;orthogonalLoop=1;jettySize=auto;html=1;entryX=0;entryY=0.5;entryDx=0;entryDy=0;endArrow=none;endFill=0;sketch=1;fillColor=#d5e8d4;strokeColor=#82b366;exitX=1;exitY=0.5;exitDx=0;exitDy=0;fontFamily=Comic Sans MS;" parent="1" source="rObYeSCpx5tgW8fG9xQo-5" target="rObYeSCpx5tgW8fG9xQo-1" edge="1">
          <mxGeometry relative="1" as="geometry">
            <mxPoint x="170" y="150" as="targetPoint" />
          </mxGeometry>
        </mxCell>
        <mxCell id="rObYeSCpx5tgW8fG9xQo-5" value="vMotion" style="rounded=0;whiteSpace=wrap;html=1;fillColor=#d5e8d4;strokeColor=#82b366;sketch=1;fontFamily=Comic Sans MS;" parent="1" vertex="1">
          <mxGeometry x="50" y="120" width="80" height="30" as="geometry" />
        </mxCell>
        <mxCell id="rObYeSCpx5tgW8fG9xQo-11" style="edgeStyle=none;rounded=0;orthogonalLoop=1;jettySize=auto;html=1;exitX=1;exitY=0.5;exitDx=0;exitDy=0;endArrow=none;endFill=0;sketch=1;fillColor=#d5e8d4;strokeColor=#82b366;entryX=0;entryY=0.5;entryDx=0;entryDy=0;fontFamily=Comic Sans MS;" parent="1" source="rObYeSCpx5tgW8fG9xQo-6" target="rObYeSCpx5tgW8fG9xQo-1" edge="1">
          <mxGeometry relative="1" as="geometry">
            <mxPoint x="170" y="150" as="targetPoint" />
          </mxGeometry>
        </mxCell>
        <mxCell id="rObYeSCpx5tgW8fG9xQo-6" value="FT" style="rounded=0;whiteSpace=wrap;html=1;fillColor=#d5e8d4;strokeColor=#82b366;sketch=1;fontFamily=Comic Sans MS;" parent="1" vertex="1">
          <mxGeometry x="50" y="160" width="80" height="30" as="geometry" />
        </mxCell>
        <mxCell id="rObYeSCpx5tgW8fG9xQo-22" style="edgeStyle=none;rounded=0;sketch=1;orthogonalLoop=1;jettySize=auto;html=1;exitX=1;exitY=0.5;exitDx=0;exitDy=0;entryX=0;entryY=0.5;entryDx=0;entryDy=0;endArrow=none;endFill=0;fillColor=#dae8fc;strokeColor=#6c8ebf;fontFamily=Comic Sans MS;" parent="1" source="rObYeSCpx5tgW8fG9xQo-12" target="rObYeSCpx5tgW8fG9xQo-20" edge="1">
          <mxGeometry relative="1" as="geometry" />
        </mxCell>
        <mxCell id="rObYeSCpx5tgW8fG9xQo-24" style="edgeStyle=none;rounded=0;sketch=1;orthogonalLoop=1;jettySize=auto;html=1;exitX=1;exitY=0.5;exitDx=0;exitDy=0;entryX=0;entryY=0.5;entryDx=0;entryDy=0;endArrow=none;endFill=0;fillColor=#dae8fc;strokeColor=#6c8ebf;fontFamily=Comic Sans MS;" parent="1" source="rObYeSCpx5tgW8fG9xQo-12" target="rObYeSCpx5tgW8fG9xQo-21" edge="1">
          <mxGeometry relative="1" as="geometry" />
        </mxCell>
        <mxCell id="rObYeSCpx5tgW8fG9xQo-12" value="&lt;div&gt;VM_NSX&lt;/div&gt;&lt;div&gt;50G&lt;/div&gt;" style="rounded=0;whiteSpace=wrap;html=1;fillColor=#dae8fc;strokeColor=#6c8ebf;sketch=1;fontFamily=Comic Sans MS;" parent="1" vertex="1">
          <mxGeometry x="340" y="170" width="80" height="60" as="geometry" />
        </mxCell>
        <mxCell id="rObYeSCpx5tgW8fG9xQo-23" style="edgeStyle=none;rounded=0;sketch=1;orthogonalLoop=1;jettySize=auto;html=1;exitX=1;exitY=0.5;exitDx=0;exitDy=0;endArrow=none;endFill=0;entryX=0;entryY=0.5;entryDx=0;entryDy=0;fillColor=#dae8fc;strokeColor=#6c8ebf;fontFamily=Comic Sans MS;" parent="1" source="rObYeSCpx5tgW8fG9xQo-13" target="rObYeSCpx5tgW8fG9xQo-20" edge="1">
          <mxGeometry relative="1" as="geometry">
            <mxPoint x="460" y="170" as="targetPoint" />
          </mxGeometry>
        </mxCell>
        <mxCell id="rObYeSCpx5tgW8fG9xQo-25" style="edgeStyle=none;rounded=0;sketch=1;orthogonalLoop=1;jettySize=auto;html=1;exitX=1;exitY=0.5;exitDx=0;exitDy=0;endArrow=none;endFill=0;entryX=0;entryY=0.5;entryDx=0;entryDy=0;fillColor=#dae8fc;strokeColor=#6c8ebf;fontFamily=Comic Sans MS;" parent="1" source="rObYeSCpx5tgW8fG9xQo-13" target="rObYeSCpx5tgW8fG9xQo-21" edge="1">
          <mxGeometry relative="1" as="geometry">
            <mxPoint x="460" y="269.9999999999999" as="targetPoint" />
          </mxGeometry>
        </mxCell>
        <mxCell id="rObYeSCpx5tgW8fG9xQo-13" value="&lt;div&gt;NFS&lt;/div&gt;&lt;div&gt;50G&lt;br&gt;&lt;/div&gt;" style="rounded=0;whiteSpace=wrap;html=1;fillColor=#dae8fc;strokeColor=#6c8ebf;sketch=1;fontFamily=Comic Sans MS;" parent="1" vertex="1">
          <mxGeometry x="340" y="250" width="80" height="60" as="geometry" />
        </mxCell>
        <mxCell id="rObYeSCpx5tgW8fG9xQo-57" style="edgeStyle=none;rounded=0;sketch=1;orthogonalLoop=1;jettySize=auto;html=1;exitX=1;exitY=0.5;exitDx=0;exitDy=0;entryX=0;entryY=0.5;entryDx=0;entryDy=0;fontFamily=Comic Sans MS;fontColor=#FF0000;endArrow=none;endFill=0;fillColor=#f5f5f5;strokeColor=#666666;" parent="1" source="rObYeSCpx5tgW8fG9xQo-20" target="rObYeSCpx5tgW8fG9xQo-55" edge="1">
          <mxGeometry relative="1" as="geometry" />
        </mxCell>
        <mxCell id="rObYeSCpx5tgW8fG9xQo-59" style="edgeStyle=none;rounded=0;sketch=1;orthogonalLoop=1;jettySize=auto;html=1;exitX=1;exitY=0.5;exitDx=0;exitDy=0;entryX=0;entryY=0.5;entryDx=0;entryDy=0;fontFamily=Comic Sans MS;fontColor=#FF0000;endArrow=none;endFill=0;fillColor=#f5f5f5;strokeColor=#666666;" parent="1" source="rObYeSCpx5tgW8fG9xQo-20" target="rObYeSCpx5tgW8fG9xQo-56" edge="1">
          <mxGeometry relative="1" as="geometry" />
        </mxCell>
        <mxCell id="rObYeSCpx5tgW8fG9xQo-20" value="VC1" style="rounded=0;whiteSpace=wrap;html=1;sketch=1;fillColor=#f5f5f5;fontColor=#333333;strokeColor=#666666;fontFamily=Comic Sans MS;" parent="1" vertex="1">
          <mxGeometry x="450" y="130" width="30" height="90" as="geometry" />
        </mxCell>
        <mxCell id="rObYeSCpx5tgW8fG9xQo-58" style="edgeStyle=none;rounded=0;sketch=1;orthogonalLoop=1;jettySize=auto;html=1;entryX=0;entryY=0.5;entryDx=0;entryDy=0;fontFamily=Comic Sans MS;fontColor=#FF0000;endArrow=none;endFill=0;fillColor=#f5f5f5;strokeColor=#666666;" parent="1" source="rObYeSCpx5tgW8fG9xQo-21" target="rObYeSCpx5tgW8fG9xQo-56" edge="1">
          <mxGeometry relative="1" as="geometry" />
        </mxCell>
        <mxCell id="rObYeSCpx5tgW8fG9xQo-60" style="edgeStyle=none;rounded=0;sketch=1;orthogonalLoop=1;jettySize=auto;html=1;exitX=1;exitY=0.5;exitDx=0;exitDy=0;entryX=0;entryY=0.5;entryDx=0;entryDy=0;fontFamily=Comic Sans MS;fontColor=#FF0000;endArrow=none;endFill=0;fillColor=#f5f5f5;strokeColor=#666666;" parent="1" source="rObYeSCpx5tgW8fG9xQo-21" target="rObYeSCpx5tgW8fG9xQo-55" edge="1">
          <mxGeometry relative="1" as="geometry" />
        </mxCell>
        <mxCell id="rObYeSCpx5tgW8fG9xQo-21" value="&lt;div&gt;VC2&lt;/div&gt;" style="rounded=0;whiteSpace=wrap;html=1;sketch=1;fillColor=#f5f5f5;fontColor=#333333;strokeColor=#666666;fontFamily=Comic Sans MS;" parent="1" vertex="1">
          <mxGeometry x="450" y="230" width="30" height="90" as="geometry" />
        </mxCell>
        <mxCell id="rObYeSCpx5tgW8fG9xQo-26" value="" style="rounded=0;whiteSpace=wrap;html=1;sketch=1;fillColor=none;strokeColor=#82b366;fontFamily=Comic Sans MS;" parent="1" vertex="1">
          <mxGeometry x="40" y="250" width="100" height="60" as="geometry" />
        </mxCell>
        <mxCell id="rObYeSCpx5tgW8fG9xQo-32" style="edgeStyle=none;rounded=0;sketch=1;orthogonalLoop=1;jettySize=auto;html=1;exitX=1;exitY=0.5;exitDx=0;exitDy=0;entryX=0;entryY=0.5;entryDx=0;entryDy=0;endArrow=none;endFill=0;fillColor=#d5e8d4;strokeColor=#82b366;fontFamily=Comic Sans MS;" parent="1" source="rObYeSCpx5tgW8fG9xQo-27" target="rObYeSCpx5tgW8fG9xQo-2" edge="1">
          <mxGeometry relative="1" as="geometry" />
        </mxCell>
        <mxCell id="rObYeSCpx5tgW8fG9xQo-27" value="NFS" style="rounded=0;whiteSpace=wrap;html=1;fillColor=#d5e8d4;strokeColor=#82b366;sketch=1;fontFamily=Comic Sans MS;" parent="1" vertex="1">
          <mxGeometry x="50" y="270" width="80" height="30" as="geometry" />
        </mxCell>
        <mxCell id="rObYeSCpx5tgW8fG9xQo-28" value="" style="rounded=0;whiteSpace=wrap;html=1;sketch=1;fillColor=none;strokeColor=#82b366;fontFamily=Comic Sans MS;" parent="1" vertex="1">
          <mxGeometry x="40" y="320" width="100" height="60" as="geometry" />
        </mxCell>
        <mxCell id="rObYeSCpx5tgW8fG9xQo-33" style="edgeStyle=none;rounded=0;sketch=1;orthogonalLoop=1;jettySize=auto;html=1;exitX=1;exitY=0.5;exitDx=0;exitDy=0;entryX=0;entryY=0.5;entryDx=0;entryDy=0;endArrow=none;endFill=0;fillColor=#d5e8d4;strokeColor=#82b366;fontFamily=Comic Sans MS;" parent="1" source="rObYeSCpx5tgW8fG9xQo-29" target="rObYeSCpx5tgW8fG9xQo-3" edge="1">
          <mxGeometry relative="1" as="geometry" />
        </mxCell>
        <mxCell id="rObYeSCpx5tgW8fG9xQo-29" value="&lt;div&gt;NSX&lt;/div&gt;" style="rounded=0;whiteSpace=wrap;html=1;fillColor=#d5e8d4;strokeColor=#82b366;sketch=1;fontFamily=Comic Sans MS;" parent="1" vertex="1">
          <mxGeometry x="50" y="340" width="80" height="30" as="geometry" />
        </mxCell>
        <mxCell id="rObYeSCpx5tgW8fG9xQo-31" style="edgeStyle=none;rounded=0;sketch=1;orthogonalLoop=1;jettySize=auto;html=1;exitX=1;exitY=0.5;exitDx=0;exitDy=0;endArrow=none;endFill=0;fillColor=#d5e8d4;strokeColor=#82b366;entryX=0;entryY=0.5;entryDx=0;entryDy=0;fontFamily=Comic Sans MS;" parent="1" source="rObYeSCpx5tgW8fG9xQo-30" target="rObYeSCpx5tgW8fG9xQo-1" edge="1">
          <mxGeometry relative="1" as="geometry">
            <mxPoint x="170" y="150" as="targetPoint" />
          </mxGeometry>
        </mxCell>
        <mxCell id="rObYeSCpx5tgW8fG9xQo-30" value="&lt;div&gt;Backup&lt;/div&gt;" style="rounded=0;whiteSpace=wrap;html=1;fillColor=#d5e8d4;strokeColor=#82b366;sketch=1;fontFamily=Comic Sans MS;" parent="1" vertex="1">
          <mxGeometry x="50" y="200" width="80" height="30" as="geometry" />
        </mxCell>
        <mxCell id="rObYeSCpx5tgW8fG9xQo-34" value="vSwitch0" style="text;html=1;align=center;verticalAlign=middle;resizable=0;points=[];autosize=1;strokeColor=none;fillColor=none;sketch=1;fontFamily=Comic Sans MS;" parent="1" vertex="1">
          <mxGeometry x="55" y="60" width="70" height="20" as="geometry" />
        </mxCell>
        <mxCell id="rObYeSCpx5tgW8fG9xQo-35" value="&lt;div&gt;vSwitch1&lt;/div&gt;" style="text;html=1;align=center;verticalAlign=middle;resizable=0;points=[];autosize=1;strokeColor=none;fillColor=none;sketch=1;fontFamily=Comic Sans MS;" parent="1" vertex="1">
          <mxGeometry x="55" y="250" width="70" height="20" as="geometry" />
        </mxCell>
        <mxCell id="rObYeSCpx5tgW8fG9xQo-36" value="&lt;div&gt;vSwitch2&lt;/div&gt;" style="text;html=1;align=center;verticalAlign=middle;resizable=0;points=[];autosize=1;strokeColor=none;fillColor=none;sketch=1;fontFamily=Comic Sans MS;" parent="1" vertex="1">
          <mxGeometry x="55" y="320" width="70" height="20" as="geometry" />
        </mxCell>
        <mxCell id="rObYeSCpx5tgW8fG9xQo-37" value="&lt;div&gt;CNA - 2 chips&lt;/div&gt;" style="text;html=1;align=center;verticalAlign=middle;resizable=0;points=[];autosize=1;strokeColor=none;fillColor=none;sketch=1;fontFamily=Comic Sans MS;" parent="1" vertex="1">
          <mxGeometry x="185" y="60" width="90" height="20" as="geometry" />
        </mxCell>
        <mxCell id="rObYeSCpx5tgW8fG9xQo-38" value="&lt;div&gt;Networks&lt;/div&gt;&lt;div&gt;(Tunnel)&lt;/div&gt;" style="text;html=1;align=center;verticalAlign=middle;resizable=0;points=[];autosize=1;strokeColor=none;fillColor=none;sketch=1;fontFamily=Comic Sans MS;" parent="1" vertex="1">
          <mxGeometry x="345" y="135" width="70" height="30" as="geometry" />
        </mxCell>
        <mxCell id="rObYeSCpx5tgW8fG9xQo-39" value="&lt;div&gt;vmnic0&lt;/div&gt;25G" style="rounded=0;whiteSpace=wrap;html=1;fillColor=#fff2cc;strokeColor=#d6b656;sketch=1;fillStyle=auto;fontFamily=Comic Sans MS;" parent="1" vertex="1">
          <mxGeometry x="170" y="90" width="70" height="30" as="geometry" />
        </mxCell>
        <mxCell id="rObYeSCpx5tgW8fG9xQo-41" value="&lt;div&gt;VM&lt;/div&gt;" style="text;html=1;align=center;verticalAlign=middle;resizable=0;points=[];autosize=1;strokeColor=none;fillColor=none;sketch=1;fontFamily=Comic Sans MS;fontColor=#FF0000;" parent="1" vertex="1">
          <mxGeometry x="255" y="115" width="30" height="20" as="geometry" />
        </mxCell>
        <mxCell id="rObYeSCpx5tgW8fG9xQo-42" value="&lt;div&gt;NFS&lt;br&gt;&lt;/div&gt;" style="text;html=1;align=center;verticalAlign=middle;resizable=0;points=[];autosize=1;strokeColor=none;fillColor=none;sketch=1;fontFamily=Comic Sans MS;fontColor=#FF0000;" parent="1" vertex="1">
          <mxGeometry x="250" y="215" width="40" height="20" as="geometry" />
        </mxCell>
        <mxCell id="rObYeSCpx5tgW8fG9xQo-43" value="&lt;div&gt;NSX&lt;br&gt;&lt;/div&gt;" style="text;html=1;align=center;verticalAlign=middle;resizable=0;points=[];autosize=1;strokeColor=none;fillColor=none;sketch=1;fontFamily=Comic Sans MS;fontColor=#FF0000;" parent="1" vertex="1">
          <mxGeometry x="250" y="315" width="40" height="20" as="geometry" />
        </mxCell>
        <mxCell id="rObYeSCpx5tgW8fG9xQo-45" value="&lt;div&gt;vmnic1&lt;/div&gt;25G" style="rounded=0;whiteSpace=wrap;html=1;fillColor=#fff2cc;strokeColor=#d6b656;sketch=1;fillStyle=hachure;fontFamily=Comic Sans MS;" parent="1" vertex="1">
          <mxGeometry x="170" y="130" width="70" height="30" as="geometry" />
        </mxCell>
        <mxCell id="rObYeSCpx5tgW8fG9xQo-46" value="&lt;div&gt;vmnic2&lt;/div&gt;&lt;div&gt;25G&lt;br&gt;&lt;/div&gt;" style="rounded=0;whiteSpace=wrap;html=1;fillColor=#fff2cc;strokeColor=#d6b656;sketch=1;fontFamily=Comic Sans MS;" parent="1" vertex="1">
          <mxGeometry x="170" y="190" width="70" height="30" as="geometry" />
        </mxCell>
        <mxCell id="rObYeSCpx5tgW8fG9xQo-47" value="&lt;div&gt;vmnic3&lt;/div&gt;25G" style="rounded=0;whiteSpace=wrap;html=1;fillColor=#fff2cc;strokeColor=#d6b656;sketch=1;fontFamily=Comic Sans MS;" parent="1" vertex="1">
          <mxGeometry x="170" y="230" width="70" height="30" as="geometry" />
        </mxCell>
        <mxCell id="rObYeSCpx5tgW8fG9xQo-48" value="&lt;div&gt;vmnic4&lt;/div&gt;25G" style="rounded=0;whiteSpace=wrap;html=1;fillColor=#fff2cc;strokeColor=#d6b656;sketch=1;fontFamily=Comic Sans MS;" parent="1" vertex="1">
          <mxGeometry x="170" y="290" width="70" height="30" as="geometry" />
        </mxCell>
        <mxCell id="rObYeSCpx5tgW8fG9xQo-49" value="&lt;div&gt;vmnic5&lt;/div&gt;&lt;div&gt;25G&lt;br&gt;&lt;/div&gt;" style="rounded=0;whiteSpace=wrap;html=1;fillColor=#fff2cc;strokeColor=#d6b656;sketch=1;fontFamily=Comic Sans MS;" parent="1" vertex="1">
          <mxGeometry x="170" y="330" width="70" height="30" as="geometry" />
        </mxCell>
        <mxCell id="rObYeSCpx5tgW8fG9xQo-52" value="&lt;div&gt;Synergy 12000&lt;/div&gt;" style="text;html=1;align=center;verticalAlign=middle;resizable=0;points=[];autosize=1;strokeColor=none;fillColor=none;sketch=1;fontFamily=Comic Sans MS;" parent="1" vertex="1">
          <mxGeometry x="355" y="40" width="100" height="20" as="geometry" />
        </mxCell>
        <mxCell id="rObYeSCpx5tgW8fG9xQo-53" value="Networks" style="text;html=1;align=center;verticalAlign=middle;resizable=0;points=[];autosize=1;strokeColor=none;fillColor=none;sketch=1;fontFamily=Comic Sans MS;" parent="1" vertex="1">
          <mxGeometry x="195" y="40" width="70" height="20" as="geometry" />
        </mxCell>
        <mxCell id="rObYeSCpx5tgW8fG9xQo-54" value="vSphere" style="text;html=1;align=center;verticalAlign=middle;resizable=0;points=[];autosize=1;strokeColor=none;fillColor=none;sketch=1;fontFamily=Comic Sans MS;" parent="1" vertex="1">
          <mxGeometry x="60" y="40" width="60" height="20" as="geometry" />
        </mxCell>
        <mxCell id="rObYeSCpx5tgW8fG9xQo-55" value="Switch1" style="rounded=0;whiteSpace=wrap;html=1;sketch=1;fillColor=#C4C4C4;fontColor=#333333;strokeColor=#666666;fontFamily=Comic Sans MS;" parent="1" vertex="1">
          <mxGeometry x="550" y="130" width="110" height="90" as="geometry" />
        </mxCell>
        <mxCell id="rObYeSCpx5tgW8fG9xQo-56" value="Switch2" style="rounded=0;whiteSpace=wrap;html=1;sketch=1;fillColor=#C4C4C4;fontColor=#333333;strokeColor=#666666;fontFamily=Comic Sans MS;" parent="1" vertex="1">
          <mxGeometry x="550" y="230" width="110" height="90" as="geometry" />
        </mxCell>
        <mxCell id="rObYeSCpx5tgW8fG9xQo-61" value="" style="ellipse;whiteSpace=wrap;html=1;sketch=1;fillStyle=auto;fontFamily=Comic Sans MS;" parent="1" vertex="1">
          <mxGeometry x="520" y="165" width="20" height="55" as="geometry" />
        </mxCell>
        <mxCell id="rObYeSCpx5tgW8fG9xQo-62" value="" style="ellipse;whiteSpace=wrap;html=1;sketch=1;fillStyle=auto;fontFamily=Comic Sans MS;" parent="1" vertex="1">
          <mxGeometry x="520" y="230" width="20" height="55" as="geometry" />
        </mxCell>
        <mxCell id="rObYeSCpx5tgW8fG9xQo-64" value="MLAG1" style="text;html=1;align=center;verticalAlign=middle;resizable=0;points=[];autosize=1;strokeColor=none;fillColor=none;fontFamily=Comic Sans MS;fontColor=default;rotation=90;shadow=0;" parent="1" vertex="1">
          <mxGeometry x="500" y="182.5" width="60" height="20" as="geometry" />
        </mxCell>
        <mxCell id="rObYeSCpx5tgW8fG9xQo-65" value="MLAG2" style="text;html=1;align=center;verticalAlign=middle;resizable=0;points=[];autosize=1;strokeColor=none;fillColor=none;fontFamily=Comic Sans MS;fontColor=default;rotation=90;" parent="1" vertex="1">
          <mxGeometry x="500" y="247.5" width="60" height="20" as="geometry" />
        </mxCell>
      </root>
    </mxGraphModel>
  </diagram>
</mxfile>
